<svg xmlns="http://www.w3.org/2000/svg" xmlns:xlink="http://www.w3.org/1999/xlink" width="500" zoomAndPan="magnify" viewBox="0 0 375 374.999991" height="500" preserveAspectRatio="xMidYMid meet" version="1.0"><defs><g/><clipPath id="fe42ebfa5d"><path d="M 36.144531 44.863281 L 339.144531 44.863281 L 339.144531 329.859375 L 36.144531 329.859375 Z M 36.144531 44.863281 " clip-rule="nonzero"/></clipPath><clipPath id="ac6651e8d9"><path d="M 118.839844 118 L 126 118 L 126 126 L 118.839844 126 Z M 118.839844 118 " clip-rule="nonzero"/></clipPath><clipPath id="7113aa109d"><path d="M 122 93 L 253 93 L 253 211.886719 L 122 211.886719 Z M 122 93 " clip-rule="nonzero"/></clipPath><clipPath id="a67529c17b"><path d="M 238 90.386719 L 253 90.386719 L 253 105 L 238 105 Z M 238 90.386719 " clip-rule="nonzero"/></clipPath><clipPath id="406a7b095d"><path d="M 249 109 L 256.089844 109 L 256.089844 117 L 249 117 Z M 249 109 " clip-rule="nonzero"/></clipPath><clipPath id="c7f1f9d9cb"><path d="M 118.839844 174 L 246 174 L 246 209 L 118.839844 209 Z M 118.839844 174 " clip-rule="nonzero"/></clipPath></defs><g clip-path="url(#fe42ebfa5d)"><path fill="#fde1a3" d="M 321.851562 243.777344 C 312.964844 260.21875 300.359375 274.453125 285.582031 285.875 C 290.976562 280.414062 295.941406 274.53125 300.398438 268.292969 C 313.183594 253.078125 322.480469 235.1875 327.109375 215.839844 C 332.246094 194.382812 331.921875 171.773438 326.914062 150.328125 C 326.378906 148.03125 325.789062 145.746094 325.144531 143.472656 C 330.425781 154.640625 334.019531 166.554688 335.324219 178.921875 C 337.679688 201.210938 332.480469 224.128906 321.851562 243.777344 Z M 255.898438 300.3125 C 259.511719 298.09375 263.054688 295.679688 266.511719 293.074219 C 325.820312 248.347656 337.566406 164.109375 292.753906 104.925781 C 286.644531 96.859375 279.804688 89.675781 272.390625 83.398438 C 277.203125 86.738281 281.851562 90.308594 286.304688 94.105469 C 295.984375 104.773438 303.871094 117.058594 309.730469 130.214844 C 318.164062 149.140625 322.453125 169.921875 322.207031 190.628906 C 321.957031 211.53125 317.019531 232.304688 307.25 250.832031 C 303.640625 257.691406 299.429688 264.207031 294.71875 270.335938 C 283.628906 282.476562 270.40625 292.589844 255.898438 300.3125 Z M 265.914062 298.542969 C 265.5625 298.800781 265.210938 299.054688 264.859375 299.308594 C 261.320312 301.214844 257.710938 302.972656 254.039062 304.59375 C 259.746094 301.726562 265.28125 298.5 270.589844 294.933594 C 269.054688 296.167969 267.496094 297.371094 265.914062 298.542969 Z M 252.214844 67.523438 C 242.265625 62.5 231.835938 58.378906 221.113281 55.308594 C 220.96875 55.148438 220.78125 55.011719 220.542969 54.910156 C 232.011719 57.933594 243.109375 62.382812 253.457031 68.160156 C 253.042969 67.945312 252.632812 67.730469 252.214844 67.523438 Z M 208.3125 324.15625 C 187.707031 328.210938 166.375 327.167969 146.171875 321.515625 C 126.066406 315.890625 107.167969 305.902344 91.160156 292.519531 C 75.054688 279.050781 61.847656 262.128906 53.269531 242.953125 C 52.964844 242.269531 52.664062 241.582031 52.371094 240.894531 C 61.675781 258.179688 74.542969 273.414062 89.726562 285.859375 C 105.449219 298.746094 123.726562 308.542969 143.171875 314.519531 C 164.507812 321.082031 187.167969 322.890625 209.3125 320.234375 C 220.628906 318.871094 231.820312 316.324219 242.621094 312.628906 C 231.730469 317.902344 220.183594 321.820312 208.3125 324.15625 Z M 42.738281 206.128906 C 41.371094 196.519531 40.964844 186.769531 41.492188 177.085938 C 42.136719 165.324219 44.15625 153.664062 47.527344 142.375 C 51.128906 130.324219 56.125 118.324219 63.164062 107.847656 C 70.339844 97.179688 79.878906 88.457031 90.101562 80.75 C 99.28125 73.832031 109.238281 68.070312 119.839844 63.609375 C 122.253906 62.597656 124.699219 61.65625 127.164062 60.777344 C 124.851562 62.441406 122.621094 64.21875 120.320312 65.902344 C 117.816406 67.734375 115.164062 69.359375 112.617188 71.128906 C 107.722656 74.53125 103.03125 78.214844 98.582031 82.171875 C 90.175781 89.652344 82.613281 98.109375 76.160156 107.328125 C 42.5 153.882812 41.484375 218.6875 77.976562 266.886719 C 83.996094 274.835938 90.730469 281.925781 98.023438 288.140625 C 95.164062 286.039062 92.378906 283.839844 89.679688 281.542969 C 74.804688 268.902344 62.339844 253.449219 53.558594 236.011719 C 48.773438 226.519531 45.128906 216.464844 42.738281 206.128906 Z M 170.335938 52.398438 C 155.242188 54.078125 140.300781 58.324219 126.199219 65.226562 C 128.105469 63.777344 130.027344 62.339844 132.0625 61.074219 C 135.96875 58.640625 140.351562 57.015625 144.804688 55.730469 C 153.195312 53.890625 161.753906 52.78125 170.335938 52.398438 Z M 100.316406 67.570312 C 118.246094 56.34375 139.042969 49.8125 160.136719 48.347656 C 162.859375 48.160156 165.585938 48.054688 168.3125 48.03125 C 167.386719 48.132812 166.457031 48.238281 165.53125 48.363281 C 159.535156 49.140625 153.5625 50.277344 147.710938 51.828125 C 136.675781 53.96875 125.878906 57.328125 115.609375 61.894531 C 104.75 66.726562 94.714844 72.992188 85.355469 80.289062 C 80.054688 84.417969 74.992188 88.871094 70.386719 93.742188 C 78.945312 83.550781 89.023438 74.644531 100.316406 67.570312 Z M 241.371094 54.960938 C 264.136719 59.398438 282.90625 74.929688 296.699219 92.929688 C 301.59375 99.324219 305.972656 106.140625 309.792969 113.257812 C 309.441406 112.824219 309.089844 112.390625 308.730469 111.964844 C 302.667969 104.703125 295.957031 97.964844 288.746094 91.789062 C 283.214844 85.730469 277.125 80.179688 270.519531 75.238281 C 257.363281 65.398438 242.457031 58.125 226.753906 53.441406 C 231.644531 53.53125 236.53125 54.015625 241.371094 54.960938 Z M 324.84375 154.59375 C 329.226562 175.730469 329.007812 197.925781 323.320312 218.796875 C 322 223.648438 320.375 228.398438 318.46875 233.027344 C 323.367188 218.441406 325.734375 203.042969 325.585938 187.613281 C 325.382812 166.3125 320.542969 145.070312 311.453125 125.792969 C 308.9375 120.46875 306.097656 115.3125 302.941406 110.363281 C 304.597656 112.222656 306.207031 114.117188 307.773438 116.054688 C 311.132812 120.207031 314.277344 124.550781 317.15625 129.0625 C 320.457031 137.34375 323.042969 145.902344 324.84375 154.59375 Z M 338.273438 175.511719 C 335.898438 157.605469 328.820312 140.703125 318.921875 125.664062 C 313.183594 111.960938 305.484375 99.046875 296.105469 87.601562 C 281.542969 69.828125 262.046875 55.378906 238.875 51.859375 C 232.25 50.855469 225.53125 50.730469 218.855469 51.316406 C 213.453125 50.019531 207.980469 49.015625 202.46875 48.316406 C 200.839844 48.109375 199.210938 47.933594 197.574219 47.78125 C 184.246094 44.960938 170.492188 44.191406 156.882812 45.425781 C 135.359375 47.378906 114.210938 54.46875 96.164062 66.386719 C 77.078125 78.996094 61.464844 96.636719 50.996094 116.9375 C 40.726562 136.851562 35.480469 159.132812 36.214844 181.542969 C 36.496094 190.210938 37.65625 198.820312 39.621094 207.242188 C 41.644531 220.957031 45.589844 234.378906 51.519531 246.933594 C 60.65625 266.257812 74.464844 283.171875 91.066406 296.601562 C 107.714844 310.066406 127.3125 320.023438 148.070312 325.386719 C 168.878906 330.765625 190.726562 331.363281 211.746094 326.792969 C 231.398438 322.523438 250.03125 314.007812 266.34375 302.296875 C 268.554688 301.109375 270.734375 299.871094 272.882812 298.574219 C 295.359375 285.035156 314.6875 265.679688 326.46875 242.125 C 336.707031 221.644531 341.289062 198.285156 338.273438 175.511719 " fill-opacity="1" fill-rule="nonzero"/></g><g clip-path="url(#ac6651e8d9)"><path fill="#ee3e54" d="M 122.359375 118.539062 C 120.414062 118.539062 118.839844 120.113281 118.839844 122.058594 C 118.839844 124.003906 120.414062 125.578125 122.359375 125.578125 C 124.304688 125.578125 125.878906 124.003906 125.878906 122.058594 C 125.878906 120.113281 124.304688 118.539062 122.359375 118.539062 Z M 122.359375 118.539062 " fill-opacity="1" fill-rule="nonzero"/></g><path fill="#f1bc19" d="M 234.976562 92.144531 C 234.003906 92.144531 233.214844 92.9375 233.214844 93.90625 C 233.214844 94.875 234.003906 95.664062 234.976562 95.664062 C 235.945312 95.664062 236.734375 94.875 236.734375 93.90625 C 236.734375 92.9375 235.945312 92.144531 234.976562 92.144531 Z M 234.976562 92.144531 " fill-opacity="1" fill-rule="nonzero"/><g clip-path="url(#7113aa109d)"><path fill="#fce0a2" d="M 187.464844 93.90625 C 151.507812 93.90625 122.359375 123.054688 122.359375 159.011719 C 122.359375 194.96875 151.507812 224.117188 187.464844 224.117188 C 223.421875 224.117188 252.570312 194.96875 252.570312 159.011719 C 252.570312 123.054688 223.421875 93.90625 187.464844 93.90625 Z M 187.464844 93.90625 " fill-opacity="1" fill-rule="nonzero"/></g><g clip-path="url(#a67529c17b)"><path fill="#f1bc19" d="M 245.53125 90.386719 C 241.640625 90.386719 238.496094 93.535156 238.496094 97.425781 C 238.496094 101.316406 241.640625 104.460938 245.53125 104.460938 C 249.421875 104.460938 252.570312 101.316406 252.570312 97.425781 C 252.570312 93.535156 249.421875 90.386719 245.53125 90.386719 Z M 245.53125 90.386719 " fill-opacity="1" fill-rule="nonzero"/></g><g clip-path="url(#406a7b095d)"><path fill="#ee3e54" d="M 252.570312 109.742188 C 250.625 109.742188 249.050781 111.316406 249.050781 113.261719 C 249.050781 115.207031 250.625 116.78125 252.570312 116.78125 C 254.515625 116.78125 256.089844 115.207031 256.089844 113.261719 C 256.089844 111.316406 254.515625 109.742188 252.570312 109.742188 Z M 252.570312 109.742188 " fill-opacity="1" fill-rule="nonzero"/></g><g clip-path="url(#c7f1f9d9cb)"><path fill="#fbcd59" d="M 242.011719 201.242188 C 240.070312 201.242188 238.496094 202.816406 238.496094 204.761719 C 238.496094 206.707031 240.070312 208.28125 242.011719 208.28125 C 243.957031 208.28125 245.53125 206.707031 245.53125 204.761719 C 245.53125 202.816406 243.957031 201.242188 242.011719 201.242188 Z M 125.878906 174.847656 C 121.988281 174.847656 118.839844 177.996094 118.839844 181.886719 C 118.839844 185.777344 121.988281 188.925781 125.878906 188.925781 C 129.769531 188.925781 132.917969 185.777344 132.917969 181.886719 C 132.917969 177.996094 129.769531 174.847656 125.878906 174.847656 Z M 125.878906 174.847656 " fill-opacity="1" fill-rule="nonzero"/></g><path fill="#ffffff" d="M 132.039062 160.769531 C 129.609375 160.769531 127.636719 162.742188 127.636719 165.167969 C 127.636719 167.597656 129.609375 169.570312 132.039062 169.570312 C 134.464844 169.570312 136.4375 167.597656 136.4375 165.167969 C 136.4375 162.742188 134.464844 160.769531 132.039062 160.769531 Z M 132.039062 160.769531 " fill-opacity="1" fill-rule="nonzero"/><path fill="#f1bc19" d="M 136.4375 187.164062 C 135.46875 187.164062 134.675781 187.953125 134.675781 188.925781 C 134.675781 189.894531 135.46875 190.683594 136.4375 190.683594 C 137.40625 190.683594 138.195312 189.894531 138.195312 188.925781 C 138.195312 187.953125 137.40625 187.164062 136.4375 187.164062 Z M 136.4375 187.164062 " fill-opacity="1" fill-rule="nonzero"/><path fill="#ffffff" d="M 240.253906 129.097656 C 239.285156 129.097656 238.496094 129.886719 238.496094 130.855469 C 238.496094 131.828125 239.285156 132.617188 240.253906 132.617188 C 241.222656 132.617188 242.011719 131.828125 242.011719 130.855469 C 242.011719 129.886719 241.222656 129.097656 240.253906 129.097656 Z M 240.253906 129.097656 " fill-opacity="1" fill-rule="nonzero"/><path fill="#ea5167" d="M 188.34375 193.851562 C 185.863281 193.851562 183.492188 192.925781 181.664062 191.234375 C 180.390625 190.058594 178.824219 189.414062 177.242188 189.414062 L 148.746094 189.414062 C 146.519531 189.414062 144.703125 187.597656 144.703125 185.371094 L 144.703125 133.285156 C 144.703125 131.050781 146.519531 129.242188 148.746094 129.242188 L 227.945312 129.242188 C 230.171875 129.242188 231.984375 131.050781 231.984375 133.285156 L 231.984375 185.371094 C 231.984375 187.597656 230.171875 189.410156 227.945312 189.410156 L 199.445312 189.410156 C 197.867188 189.410156 196.296875 190.058594 195.027344 191.234375 C 193.199219 192.917969 190.828125 193.851562 188.34375 193.851562 Z M 188.34375 193.851562 " fill-opacity="1" fill-rule="nonzero"/><path fill="#472b29" d="M 227.945312 130.472656 C 229.492188 130.472656 230.753906 131.730469 230.753906 133.285156 L 230.753906 185.371094 C 230.753906 186.917969 229.492188 188.175781 227.945312 188.175781 L 199.445312 188.175781 C 197.558594 188.175781 195.6875 188.945312 194.1875 190.328125 C 192.585938 191.804688 190.519531 192.625 188.347656 192.625 C 186.175781 192.625 184.105469 191.804688 182.503906 190.328125 C 181 188.945312 179.136719 188.175781 177.246094 188.175781 L 148.746094 188.175781 C 147.199219 188.175781 145.933594 186.917969 145.933594 185.371094 L 145.933594 133.285156 C 145.933594 131.730469 147.199219 130.472656 148.746094 130.472656 L 227.945312 130.472656 M 227.945312 128.011719 L 148.746094 128.011719 C 145.839844 128.011719 143.476562 130.371094 143.476562 133.285156 L 143.476562 185.371094 C 143.476562 188.277344 145.839844 190.640625 148.746094 190.640625 L 177.242188 190.640625 C 178.589844 190.640625 179.84375 191.226562 180.832031 192.132812 C 182.804688 193.960938 185.445312 195.082031 188.34375 195.082031 C 191.246094 195.082031 193.882812 193.960938 195.859375 192.132812 C 196.847656 191.226562 198.097656 190.640625 199.445312 190.640625 L 227.945312 190.640625 C 230.851562 190.640625 233.214844 188.277344 233.214844 185.371094 L 233.214844 133.285156 C 233.214844 130.371094 230.851562 128.011719 227.945312 128.011719 Z M 227.945312 128.011719 " fill-opacity="1" fill-rule="nonzero"/><path fill="#472b29" d="M 188.34375 177.3125 C 184.667969 177.3125 181.683594 180.296875 181.683594 183.980469 C 181.683594 187.660156 184.667969 190.640625 188.34375 190.640625 C 192.023438 190.640625 195.003906 187.660156 195.003906 183.980469 C 195.003906 180.296875 192.023438 177.3125 188.34375 177.3125 Z M 188.34375 177.3125 " fill-opacity="1" fill-rule="nonzero"/><path fill="#fffef4" d="M 151.558594 182.746094 C 150.691406 182.746094 149.984375 182.042969 149.984375 181.167969 L 149.984375 132.683594 L 153.070312 124.90625 C 153.640625 123.460938 155.023438 122.523438 156.582031 122.523438 C 169.984375 122.539062 180.046875 124.921875 187.273438 129.078125 L 187.558594 129.242188 L 189.101562 129.242188 L 189.359375 129.105469 C 197.078125 125.160156 207.355469 122.703125 219.796875 122.554688 C 221.578125 122.554688 223.097656 123.578125 223.71875 125.15625 L 226.703125 132.675781 L 226.703125 181.167969 C 226.703125 182.042969 225.996094 182.746094 225.121094 182.746094 Z M 151.558594 182.746094 " fill-opacity="1" fill-rule="nonzero"/><path fill="#472b29" d="M 156.589844 123.757812 C 169.582031 123.769531 179.71875 126.15625 186.660156 130.144531 L 187.230469 130.472656 L 189.394531 130.472656 L 189.917969 130.207031 C 197.472656 126.335938 207.550781 123.9375 219.847656 123.785156 C 221.0625 123.785156 222.136719 124.5 222.574219 125.613281 L 225.46875 132.921875 L 225.46875 181.171875 C 225.46875 181.363281 225.316406 181.515625 225.125 181.515625 L 151.558594 181.515625 C 151.367188 181.515625 151.214844 181.363281 151.214844 181.171875 L 151.214844 132.917969 L 154.210938 125.359375 C 154.597656 124.382812 155.53125 123.757812 156.585938 123.757812 L 156.589844 123.757812 M 156.582031 121.296875 C 154.527344 121.296875 152.679688 122.539062 151.921875 124.449219 L 148.753906 132.453125 L 148.753906 181.171875 C 148.753906 182.726562 150.011719 183.984375 151.558594 183.984375 L 225.132812 183.984375 C 226.679688 183.984375 227.9375 182.726562 227.9375 181.171875 L 227.9375 132.453125 L 224.875 124.707031 C 224.054688 122.648438 222.0625 121.324219 219.855469 121.324219 C 219.832031 121.324219 219.808594 121.324219 219.785156 121.324219 C 208.285156 121.46875 197.386719 123.621094 188.808594 128.011719 L 187.894531 128.011719 C 179.644531 123.269531 168.441406 121.300781 156.589844 121.296875 C 156.589844 121.296875 156.589844 121.296875 156.582031 121.296875 Z M 156.582031 121.296875 " fill-opacity="1" fill-rule="nonzero"/><path fill="#bebacb" d="M 221.625 175.027344 L 188.398438 176.75 L 155.0625 175.027344 L 151.394531 181.378906 L 225.296875 181.378906 Z M 221.625 175.027344 " fill-opacity="1" fill-rule="nonzero"/><path fill="#472b29" d="M 188.34375 178.195312 C 188.140625 178.195312 187.941406 178.125 187.773438 177.988281 C 187.574219 177.824219 187.464844 177.578125 187.464844 177.3125 L 187.464844 156.371094 C 187.464844 155.882812 187.859375 155.492188 188.34375 155.492188 C 188.832031 155.492188 189.226562 155.882812 189.226562 156.371094 L 189.226562 176.285156 C 199.261719 174.703125 209.5625 173.960938 220.898438 174.234375 L 220.898438 122.9375 C 220.898438 122.453125 221.289062 122.058594 221.777344 122.058594 C 222.265625 122.058594 222.65625 122.453125 222.65625 122.9375 L 222.65625 175.144531 C 222.65625 175.378906 222.5625 175.609375 222.390625 175.769531 C 222.21875 175.933594 221.992188 176.027344 221.75 176.023438 C 209.886719 175.664062 198.882812 176.460938 188.492188 178.1875 C 188.441406 178.195312 188.394531 178.195312 188.34375 178.195312 Z M 188.34375 178.195312 " fill-opacity="1" fill-rule="nonzero"/><path fill="#472b29" d="M 188.34375 178.574219 C 188.296875 178.574219 188.25 178.566406 188.199219 178.558594 C 177.816406 176.8125 166.816406 176.007812 154.941406 176.367188 C 154.699219 176.359375 154.472656 176.285156 154.300781 176.117188 C 154.132812 175.953125 154.03125 175.71875 154.03125 175.484375 L 154.03125 122.9375 C 154.03125 122.453125 154.425781 122.058594 154.914062 122.058594 C 155.398438 122.058594 155.792969 122.453125 155.792969 122.9375 L 155.792969 174.585938 C 167.125 174.3125 177.4375 175.054688 187.464844 176.65625 L 187.464844 149.332031 C 187.464844 148.84375 187.859375 148.453125 188.34375 148.453125 C 188.832031 148.453125 189.226562 148.84375 189.226562 149.332031 L 189.226562 177.691406 C 189.226562 177.953125 189.109375 178.195312 188.914062 178.367188 C 188.75 178.496094 188.550781 178.574219 188.34375 178.574219 Z M 188.34375 178.574219 " fill-opacity="1" fill-rule="nonzero"/><path fill="#472b29" d="M 187.464844 129.097656 L 187.464844 144.054688 C 187.464844 144.542969 187.859375 144.933594 188.34375 144.933594 C 188.832031 144.933594 189.226562 144.542969 189.226562 144.054688 L 189.226562 129.097656 Z M 187.464844 129.097656 " fill-opacity="1" fill-rule="nonzero"/><path fill="#472b29" d="M 183.066406 133.9375 C 183 133.9375 182.933594 133.921875 182.871094 133.890625 C 177.949219 131.429688 174.074219 130.144531 169.5 129.457031 C 169.261719 129.421875 169.097656 129.199219 169.132812 128.957031 C 169.167969 128.714844 169.394531 128.550781 169.632812 128.589844 C 174.304688 129.289062 178.253906 130.601562 183.261719 133.101562 C 183.480469 133.210938 183.566406 133.476562 183.460938 133.691406 C 183.382812 133.847656 183.226562 133.9375 183.066406 133.9375 Z M 183.066406 133.9375 " fill-opacity="1" fill-rule="nonzero"/><path fill="#472b29" d="M 183.066406 172.648438 C 183.035156 172.648438 183.003906 172.644531 182.96875 172.636719 C 175.167969 170.886719 169.847656 170.886719 160.191406 170.886719 C 159.949219 170.886719 159.75 170.691406 159.75 170.449219 C 159.75 170.207031 159.949219 170.007812 160.191406 170.007812 C 169.910156 170.007812 175.265625 170.007812 183.164062 171.777344 C 183.402344 171.832031 183.546875 172.066406 183.496094 172.304688 C 183.449219 172.507812 183.269531 172.648438 183.066406 172.648438 Z M 183.066406 172.648438 " fill-opacity="1" fill-rule="nonzero"/><path fill="#472b29" d="M 160.191406 135.695312 C 159.949219 135.695312 159.75 135.5 159.75 135.257812 L 159.75 128.21875 C 159.75 127.976562 159.949219 127.777344 160.191406 127.777344 C 160.21875 127.777344 162.800781 127.78125 166.511719 128.183594 C 166.75 128.210938 166.925781 128.429688 166.902344 128.667969 C 166.875 128.910156 166.644531 129.078125 166.417969 129.058594 C 163.640625 128.757812 161.511719 128.683594 160.632812 128.664062 L 160.632812 135.257812 C 160.632812 135.5 160.433594 135.695312 160.191406 135.695312 Z M 160.191406 135.695312 " fill-opacity="1" fill-rule="nonzero"/><path fill="#472b29" d="M 160.191406 160.332031 C 159.949219 160.332031 159.75 160.132812 159.75 159.890625 L 159.75 138.773438 C 159.75 138.53125 159.949219 138.335938 160.191406 138.335938 C 160.433594 138.335938 160.632812 138.53125 160.632812 138.773438 L 160.632812 159.890625 C 160.632812 160.132812 160.433594 160.332031 160.191406 160.332031 Z M 160.191406 160.332031 " fill-opacity="1" fill-rule="nonzero"/><path fill="#472b29" d="M 160.191406 170.886719 C 159.949219 170.886719 159.75 170.691406 159.75 170.449219 L 159.75 165.167969 C 159.75 164.925781 159.949219 164.730469 160.191406 164.730469 C 160.433594 164.730469 160.632812 164.925781 160.632812 165.167969 L 160.632812 170.449219 C 160.632812 170.691406 160.433594 170.886719 160.191406 170.886719 Z M 160.191406 170.886719 " fill-opacity="1" fill-rule="nonzero"/><path fill="#472b29" d="M 193.625 133.9375 C 193.464844 133.9375 193.308594 133.847656 193.230469 133.691406 C 193.121094 133.476562 193.207031 133.210938 193.425781 133.101562 C 198.4375 130.597656 202.386719 129.289062 207.058594 128.589844 C 207.300781 128.566406 207.523438 128.71875 207.558594 128.957031 C 207.59375 129.199219 207.429688 129.421875 207.1875 129.457031 C 202.613281 130.144531 198.742188 131.429688 193.820312 133.890625 C 193.757812 133.921875 193.691406 133.9375 193.625 133.9375 Z M 193.625 133.9375 " fill-opacity="1" fill-rule="nonzero"/><path fill="#472b29" d="M 216.5 135.695312 C 216.257812 135.695312 216.058594 135.5 216.058594 135.257812 L 216.058594 128.664062 C 215.179688 128.683594 213.050781 128.757812 210.273438 129.0625 C 210.046875 129.085938 209.816406 128.914062 209.789062 128.671875 C 209.761719 128.429688 209.9375 128.210938 210.179688 128.1875 C 213.890625 127.78125 216.472656 127.78125 216.5 127.78125 C 216.742188 127.78125 216.9375 127.976562 216.9375 128.21875 L 216.9375 135.257812 C 216.9375 135.5 216.742188 135.695312 216.5 135.695312 Z M 216.5 135.695312 " fill-opacity="1" fill-rule="nonzero"/><path fill="#472b29" d="M 216.5 169.128906 C 216.257812 169.128906 216.058594 168.929688 216.058594 168.6875 L 216.058594 140.535156 C 216.058594 140.292969 216.257812 140.09375 216.5 140.09375 C 216.742188 140.09375 216.9375 140.292969 216.9375 140.535156 L 216.9375 168.6875 C 216.9375 168.929688 216.742188 169.128906 216.5 169.128906 Z M 216.5 169.128906 " fill-opacity="1" fill-rule="nonzero"/><path fill="#f4989e" d="M 222.296875 203.777344 C 220.445312 203.777344 218.765625 202.753906 217.914062 201.109375 L 216.863281 199.074219 L 225.621094 194.554688 L 226.671875 196.585938 C 227.917969 199 226.96875 201.980469 224.554688 203.226562 C 223.847656 203.59375 223.089844 203.777344 222.296875 203.777344 Z M 222.296875 203.777344 " fill-opacity="1" fill-rule="nonzero"/><path fill="#472b29" d="M 225.089844 196.214844 L 225.574219 197.152344 C 226.507812 198.964844 225.796875 201.199219 223.988281 202.132812 C 223.457031 202.40625 222.886719 202.546875 222.296875 202.546875 C 220.90625 202.546875 219.644531 201.777344 219.007812 200.542969 L 218.523438 199.605469 L 225.089844 196.214844 M 226.152344 192.894531 L 215.207031 198.546875 L 216.824219 201.675781 C 217.917969 203.792969 220.070312 205.007812 222.300781 205.007812 C 223.253906 205.007812 224.21875 204.789062 225.121094 204.320312 C 228.140625 202.761719 229.328125 199.042969 227.769531 196.023438 Z M 226.152344 192.894531 " fill-opacity="1" fill-rule="nonzero"/><path fill="#88ae45" d="M 197.082031 160.777344 L 205.839844 156.253906 L 224.082031 191.589844 L 215.328125 196.109375 Z M 197.082031 160.777344 " fill-opacity="1" fill-rule="nonzero"/><path fill="#472b29" d="M 205.308594 157.910156 L 222.425781 191.054688 L 215.859375 194.445312 L 198.742188 161.300781 L 205.308594 157.910156 M 206.367188 154.59375 L 195.425781 160.246094 L 214.804688 197.765625 L 225.746094 192.113281 Z M 206.367188 154.59375 " fill-opacity="1" fill-rule="nonzero"/><path fill="#cbc9bc" d="M 213.636719 192.828125 L 222.390625 188.308594 L 225.699219 194.71875 L 216.945312 199.238281 Z M 213.636719 192.828125 " fill-opacity="1" fill-rule="nonzero"/><path fill="#472b29" d="M 221.863281 189.960938 L 224.042969 194.183594 L 217.476562 197.574219 L 215.296875 193.351562 L 221.863281 189.960938 M 222.917969 186.640625 L 211.976562 192.292969 L 216.417969 200.894531 L 227.359375 195.242188 Z M 222.917969 186.640625 " fill-opacity="1" fill-rule="nonzero"/><path fill="#472b29" d="M 215.832031 186.78125 C 215.675781 186.78125 215.519531 186.695312 215.441406 186.542969 L 213.019531 181.851562 C 212.910156 181.636719 212.992188 181.371094 213.207031 181.257812 C 213.421875 181.144531 213.6875 181.226562 213.800781 181.449219 L 216.222656 186.140625 C 216.335938 186.355469 216.25 186.621094 216.035156 186.730469 C 215.972656 186.765625 215.902344 186.78125 215.832031 186.78125 Z M 215.832031 186.78125 " fill-opacity="1" fill-rule="nonzero"/><path fill="#472b29" d="M 211.796875 178.964844 C 211.640625 178.964844 211.484375 178.878906 211.40625 178.726562 L 204.140625 164.652344 C 204.027344 164.4375 204.113281 164.171875 204.328125 164.0625 C 204.542969 163.949219 204.808594 164.03125 204.921875 164.25 L 212.1875 178.324219 C 212.300781 178.539062 212.214844 178.804688 212 178.914062 C 211.933594 178.949219 211.867188 178.964844 211.796875 178.964844 Z M 211.796875 178.964844 " fill-opacity="1" fill-rule="nonzero"/><path fill="#f6cca4" d="M 194.621094 147.769531 L 195.425781 160.246094 L 200.847656 157.441406 L 206.367188 154.59375 L 196.660156 146.714844 C 195.8125 146.027344 194.550781 146.679688 194.621094 147.769531 Z M 194.621094 147.769531 " fill-opacity="1" fill-rule="nonzero"/><path fill="#472b29" d="M 195.398438 160.191406 L 194.539062 146.867188 C 194.515625 146.519531 194.703125 146.1875 195.015625 146.027344 C 195.324219 145.867188 195.703125 145.910156 195.972656 146.125 L 206.339844 154.539062 L 205.230469 155.90625 L 196.425781 148.757812 L 197.15625 160.078125 Z M 195.398438 160.191406 " fill-opacity="1" fill-rule="nonzero"/><path fill="#472b29" d="M 199.632812 151.136719 L 196.507812 152.753906 L 195.976562 147.335938 Z M 199.632812 151.136719 " fill-opacity="1" fill-rule="nonzero"/><g fill="#eb5066" fill-opacity="1"><g transform="translate(125.892073, 244.787211)"><g><path d="M 3.15625 -28.285156 L 7.148438 -28.285156 L 22.976562 -7.011719 L 22.976562 -28.285156 L 26.984375 -28.285156 L 26.984375 0 L 22.976562 0 L 7.148438 -21.308594 L 7.148438 0 L 3.15625 0 Z M 3.15625 -28.285156 "/></g></g></g><g fill="#eb5066" fill-opacity="1"><g transform="translate(156.149741, 244.787211)"><g><path d="M 11.894531 0.269531 C 10.011719 0.269531 8.28125 -0.21875 6.695312 -1.199219 C 5.113281 -2.183594 3.851562 -3.511719 2.914062 -5.1875 C 1.980469 -6.859375 1.511719 -8.683594 1.511719 -10.660156 C 1.511719 -12.632812 1.980469 -14.457031 2.917969 -16.128906 C 3.855469 -17.804688 5.117188 -19.132812 6.695312 -20.121094 C 8.277344 -21.105469 10.007812 -21.601562 11.894531 -21.601562 C 13.605469 -21.601562 15.1875 -21.152344 16.636719 -20.253906 C 18.085938 -19.355469 19.148438 -18.210938 19.816406 -16.816406 L 20.011719 -21.308594 L 23.5 -21.308594 L 23.5 0 L 20.011719 0 L 19.816406 -4.4375 C 19.148438 -3.082031 18.085938 -1.957031 16.636719 -1.066406 C 15.1875 -0.175781 13.605469 0.269531 11.894531 0.269531 Z M 12.488281 -3.46875 C 13.796875 -3.46875 15.003906 -3.789062 16.117188 -4.4375 C 17.226562 -5.082031 18.105469 -5.953125 18.753906 -7.054688 C 19.398438 -8.152344 19.722656 -9.351562 19.722656 -10.65625 C 19.722656 -11.960938 19.398438 -13.164062 18.753906 -14.269531 C 18.105469 -15.371094 17.226562 -16.25 16.117188 -16.902344 C 15.003906 -17.554688 13.796875 -17.878906 12.488281 -17.878906 C 11.203125 -17.878906 10.007812 -17.554688 8.910156 -16.90625 C 7.8125 -16.253906 6.941406 -15.375 6.296875 -14.265625 C 5.648438 -13.15625 5.328125 -11.953125 5.328125 -10.652344 C 5.328125 -9.347656 5.648438 -8.148438 6.296875 -7.050781 C 6.941406 -5.953125 7.8125 -5.082031 8.910156 -4.4375 C 10.007812 -3.789062 11.203125 -3.46875 12.488281 -3.46875 Z M 12.488281 -3.46875 "/></g></g></g><g fill="#eb5066" fill-opacity="1"><g transform="translate(182.533194, 244.787211)"><g><path d="M 10.925781 0.347656 C 8.808594 0.347656 7.082031 -0.332031 5.742188 -1.695312 C 4.40625 -3.058594 3.738281 -5.132812 3.738281 -7.921875 L 3.738281 -17.898438 L 0.871094 -17.898438 L 0.871094 -21.308594 L 3.855469 -21.308594 L 4.320312 -28.285156 L 7.515625 -28.285156 L 7.515625 -21.308594 L 12.632812 -21.308594 L 12.632812 -17.898438 L 7.515625 -17.898438 L 7.515625 -7.980469 C 7.515625 -6.46875 7.859375 -5.316406 8.542969 -4.515625 C 9.226562 -3.714844 10.183594 -3.3125 11.410156 -3.3125 C 11.992188 -3.3125 12.535156 -3.410156 13.039062 -3.601562 L 14.007812 -0.214844 C 13.101562 0.160156 12.074219 0.347656 10.925781 0.347656 Z M 10.925781 0.347656 "/></g></g></g><g fill="#eb5066" fill-opacity="1"><g transform="translate(197.913864, 244.787211)"><g><path d="M 12.804688 0.289062 C 10.699219 0.289062 8.78125 -0.199219 7.050781 -1.183594 C 5.320312 -2.164062 3.964844 -3.492188 2.984375 -5.171875 C 2 -6.851562 1.511719 -8.683594 1.511719 -10.675781 C 1.511719 -12.636719 1.996094 -14.457031 2.964844 -16.128906 C 3.933594 -17.800781 5.242188 -19.128906 6.898438 -20.109375 C 8.550781 -21.089844 10.359375 -21.582031 12.320312 -21.582031 C 14.347656 -21.582031 16.183594 -21.089844 17.824219 -20.109375 C 19.464844 -19.128906 20.753906 -17.804688 21.695312 -16.136719 C 22.640625 -14.472656 23.113281 -12.648438 23.113281 -10.675781 C 23.113281 -10.210938 23.074219 -9.613281 22.996094 -8.890625 L 5.558594 -8.890625 C 5.765625 -7.832031 6.207031 -6.875 6.886719 -6.015625 C 7.566406 -5.15625 8.421875 -4.480469 9.453125 -3.992188 C 10.488281 -3.5 11.605469 -3.253906 12.804688 -3.253906 C 14.097656 -3.253906 15.261719 -3.496094 16.300781 -3.980469 C 17.339844 -4.464844 18.210938 -5.140625 18.90625 -6.003906 L 21.96875 -4.085938 C 20.960938 -2.757812 19.632812 -1.695312 17.988281 -0.902344 C 16.339844 -0.105469 14.613281 0.289062 12.804688 0.289062 Z M 19.21875 -11.992188 C 19.152344 -13.089844 18.820312 -14.101562 18.21875 -15.023438 C 17.621094 -15.945312 16.808594 -16.679688 15.789062 -17.222656 C 14.769531 -17.765625 13.617188 -18.035156 12.339844 -18.035156 C 11.125 -18.035156 10.011719 -17.765625 9 -17.222656 C 7.984375 -16.679688 7.171875 -15.945312 6.558594 -15.015625 C 5.945312 -14.082031 5.605469 -13.078125 5.539062 -11.992188 Z M 19.21875 -11.992188 "/></g></g></g><g fill="#eb5066" fill-opacity="1"><g transform="translate(222.670151, 244.787211)"><g><path d="M 19.875 -4.378906 C 19.203125 -3.023438 18.152344 -1.90625 16.71875 -1.027344 C 15.285156 -0.148438 13.722656 0.289062 12.03125 0.289062 C 10.152344 0.289062 8.421875 -0.203125 6.839844 -1.191406 C 5.257812 -2.179688 3.996094 -3.515625 3.054688 -5.191406 C 2.117188 -6.871094 1.648438 -8.695312 1.648438 -10.675781 C 1.648438 -12.640625 2.113281 -14.460938 3.050781 -16.132812 C 3.988281 -17.800781 5.25 -19.128906 6.839844 -20.109375 C 8.425781 -21.089844 10.15625 -21.582031 12.03125 -21.582031 C 13.746094 -21.582031 15.332031 -21.136719 16.785156 -20.246094 C 18.238281 -19.351562 19.296875 -18.230469 19.953125 -16.875 L 20.167969 -21.308594 L 23.652344 -21.308594 L 23.652344 8.523438 L 19.875 8.523438 Z M 12.644531 -3.449219 C 13.953125 -3.449219 15.160156 -3.769531 16.261719 -4.417969 C 17.367188 -5.0625 18.246094 -5.941406 18.898438 -7.050781 C 19.550781 -8.164062 19.875 -9.367188 19.875 -10.667969 C 19.875 -11.96875 19.550781 -13.167969 18.898438 -14.265625 C 18.25 -15.363281 17.371094 -16.234375 16.261719 -16.886719 C 15.15625 -17.535156 13.953125 -17.863281 12.648438 -17.863281 C 11.359375 -17.863281 10.160156 -17.535156 9.058594 -16.886719 C 7.957031 -16.238281 7.082031 -15.363281 6.433594 -14.269531 C 5.785156 -13.171875 5.464844 -11.972656 5.464844 -10.675781 C 5.464844 -9.367188 5.785156 -8.160156 6.433594 -7.050781 C 7.078125 -5.941406 7.953125 -5.0625 9.058594 -4.417969 C 10.160156 -3.769531 11.355469 -3.449219 12.644531 -3.449219 Z M 12.644531 -3.449219 "/></g></g></g><g fill="#462a28" fill-opacity="1"><g transform="translate(129.673026, 275.178205)"><g><path d="M 1.308594 -11.714844 L 2.960938 -11.714844 L 2.960938 -1.652344 L 8.867188 -1.652344 L 8.867188 0 L 1.308594 0 Z M 1.308594 -11.714844 "/></g></g></g><g fill="#462a28" fill-opacity="1"><g transform="translate(138.897753, 275.178205)"><g><path d="M 1.308594 -11.714844 L 8.546875 -11.714844 L 8.546875 -10.183594 L 2.953125 -10.183594 L 2.953125 -6.765625 L 8.226562 -6.765625 L 8.226562 -5.25 L 2.953125 -5.25 L 2.953125 -1.597656 L 8.707031 -1.597656 L 8.707031 0 L 1.308594 0 Z M 1.308594 -11.714844 "/></g></g></g><g fill="#462a28" fill-opacity="1"><g transform="translate(148.379171, 275.178205)"><g><path d="M 4.527344 -11.714844 L 6.324219 -11.714844 L 10.609375 0 L 8.804688 0 L 7.6875 -3.050781 L 3.167969 -3.050781 L 2.0625 0 L 0.242188 0 Z M 7.207031 -4.597656 L 5.425781 -9.476562 L 3.660156 -4.597656 Z M 7.207031 -4.597656 "/></g></g></g><g fill="#462a28" fill-opacity="1"><g transform="translate(159.224244, 275.178205)"><g><path d="M 1.308594 -11.714844 L 5.761719 -11.714844 C 6.53125 -11.714844 7.21875 -11.550781 7.816406 -11.222656 C 8.414062 -10.894531 8.878906 -10.449219 9.207031 -9.886719 C 9.539062 -9.324219 9.703125 -8.707031 9.703125 -8.03125 C 9.703125 -7.492188 9.589844 -6.988281 9.363281 -6.515625 C 9.140625 -6.046875 8.824219 -5.644531 8.421875 -5.3125 C 8.019531 -4.980469 7.550781 -4.753906 7.023438 -4.628906 L 9.894531 0 L 7.96875 0 L 5.3125 -4.339844 L 2.960938 -4.339844 L 2.960938 0 L 1.308594 0 Z M 5.730469 -5.960938 C 6.183594 -5.960938 6.585938 -6.054688 6.929688 -6.242188 C 7.273438 -6.429688 7.539062 -6.683594 7.726562 -6.996094 C 7.914062 -7.3125 8.007812 -7.660156 8.007812 -8.03125 C 8.007812 -8.402344 7.914062 -8.746094 7.726562 -9.058594 C 7.539062 -9.375 7.273438 -9.628906 6.929688 -9.816406 C 6.585938 -10 6.183594 -10.09375 5.730469 -10.09375 L 2.960938 -10.09375 L 2.960938 -5.960938 Z M 5.730469 -5.960938 "/></g></g></g><g fill="#462a28" fill-opacity="1"><g transform="translate(169.523857, 275.178205)"><g><path d="M 1.308594 -11.714844 L 2.960938 -11.714844 L 9.519531 -2.90625 L 9.519531 -11.714844 L 11.179688 -11.714844 L 11.179688 0 L 9.519531 0 L 2.960938 -8.828125 L 2.960938 0 L 1.308594 0 Z M 1.308594 -11.714844 "/></g></g></g><g fill="#462a28" fill-opacity="1"><g transform="translate(182.005321, 275.178205)"><g/></g></g><g fill="#462a28" fill-opacity="1"><g transform="translate(186.385066, 275.178205)"><g><path d="M 4.527344 -11.714844 L 6.324219 -11.714844 L 10.609375 0 L 8.804688 0 L 7.6875 -3.050781 L 3.167969 -3.050781 L 2.0625 0 L 0.242188 0 Z M 7.207031 -4.597656 L 5.425781 -9.476562 L 3.660156 -4.597656 Z M 7.207031 -4.597656 "/></g></g></g><g fill="#462a28" fill-opacity="1"><g transform="translate(197.230139, 275.178205)"><g><path d="M 1.308594 -11.714844 L 5.761719 -11.714844 C 6.53125 -11.714844 7.21875 -11.550781 7.816406 -11.222656 C 8.414062 -10.894531 8.878906 -10.449219 9.207031 -9.886719 C 9.539062 -9.324219 9.703125 -8.707031 9.703125 -8.03125 C 9.703125 -7.492188 9.589844 -6.988281 9.363281 -6.515625 C 9.140625 -6.046875 8.824219 -5.644531 8.421875 -5.3125 C 8.019531 -4.980469 7.550781 -4.753906 7.023438 -4.628906 L 9.894531 0 L 7.96875 0 L 5.3125 -4.339844 L 2.960938 -4.339844 L 2.960938 0 L 1.308594 0 Z M 5.730469 -5.960938 C 6.183594 -5.960938 6.585938 -6.054688 6.929688 -6.242188 C 7.273438 -6.429688 7.539062 -6.683594 7.726562 -6.996094 C 7.914062 -7.3125 8.007812 -7.660156 8.007812 -8.03125 C 8.007812 -8.402344 7.914062 -8.746094 7.726562 -9.058594 C 7.539062 -9.375 7.273438 -9.628906 6.929688 -9.816406 C 6.585938 -10 6.183594 -10.09375 5.730469 -10.09375 L 2.960938 -10.09375 L 2.960938 -5.960938 Z M 5.730469 -5.960938 "/></g></g></g><g fill="#462a28" fill-opacity="1"><g transform="translate(207.529752, 275.178205)"><g><path d="M 4.527344 -11.714844 L 6.324219 -11.714844 L 10.609375 0 L 8.804688 0 L 7.6875 -3.050781 L 3.167969 -3.050781 L 2.0625 0 L 0.242188 0 Z M 7.207031 -4.597656 L 5.425781 -9.476562 L 3.660156 -4.597656 Z M 7.207031 -4.597656 "/></g></g></g><g fill="#462a28" fill-opacity="1"><g transform="translate(218.374825, 275.178205)"><g><path d="M 1.308594 -11.714844 L 5.503906 -11.714844 C 6.214844 -11.714844 6.84375 -11.589844 7.390625 -11.332031 C 7.9375 -11.074219 8.359375 -10.714844 8.660156 -10.25 C 8.957031 -9.789062 9.109375 -9.261719 9.109375 -8.675781 C 9.109375 -8.152344 8.984375 -7.683594 8.734375 -7.273438 C 8.488281 -6.867188 8.144531 -6.53125 7.703125 -6.277344 C 8.347656 -6.0625 8.859375 -5.699219 9.246094 -5.191406 C 9.628906 -4.683594 9.824219 -4.078125 9.824219 -3.371094 C 9.824219 -2.722656 9.664062 -2.144531 9.34375 -1.632812 C 9.027344 -1.121094 8.578125 -0.722656 8 -0.433594 C 7.421875 -0.144531 6.761719 0 6.019531 0 L 1.308594 0 Z M 5.960938 -1.597656 C 6.402344 -1.597656 6.785156 -1.675781 7.109375 -1.835938 C 7.4375 -2 7.6875 -2.222656 7.859375 -2.507812 C 8.035156 -2.792969 8.121094 -3.117188 8.121094 -3.484375 C 8.121094 -3.847656 8.03125 -4.167969 7.851562 -4.449219 C 7.671875 -4.730469 7.425781 -4.949219 7.113281 -5.109375 C 6.800781 -5.265625 6.453125 -5.34375 6.066406 -5.34375 L 2.960938 -5.34375 L 2.960938 -1.597656 Z M 5.570312 -6.8125 C 5.945312 -6.820312 6.277344 -6.894531 6.5625 -7.039062 C 6.851562 -7.183594 7.078125 -7.378906 7.242188 -7.625 C 7.40625 -7.871094 7.488281 -8.148438 7.488281 -8.457031 C 7.488281 -8.957031 7.3125 -9.371094 6.960938 -9.699219 C 6.609375 -10.027344 6.113281 -10.191406 5.472656 -10.191406 L 2.960938 -10.191406 L 2.960938 -6.804688 Z M 5.570312 -6.8125 "/></g></g></g><g fill="#462a28" fill-opacity="1"><g transform="translate(228.818817, 275.178205)"><g><path d="M 1.308594 -11.714844 L 2.960938 -11.714844 L 2.960938 0 L 1.308594 0 Z M 1.308594 -11.714844 "/></g></g></g><g fill="#462a28" fill-opacity="1"><g transform="translate(233.086261, 275.178205)"><g><path d="M 6.820312 0.191406 C 5.722656 0.191406 4.714844 -0.078125 3.792969 -0.621094 C 2.867188 -1.164062 2.136719 -1.902344 1.597656 -2.828125 C 1.054688 -3.757812 0.785156 -4.765625 0.785156 -5.859375 C 0.785156 -6.945312 1.054688 -7.949219 1.597656 -8.871094 C 2.136719 -9.792969 2.867188 -10.527344 3.792969 -11.066406 C 4.714844 -11.605469 5.722656 -11.878906 6.820312 -11.878906 C 7.761719 -11.878906 8.644531 -11.671875 9.46875 -11.265625 C 10.292969 -10.859375 10.984375 -10.300781 11.546875 -9.589844 L 10.183594 -8.578125 C 9.78125 -9.082031 9.289062 -9.476562 8.699219 -9.761719 C 8.109375 -10.046875 7.484375 -10.191406 6.820312 -10.191406 C 6.035156 -10.191406 5.308594 -9.996094 4.640625 -9.609375 C 3.976562 -9.222656 3.449219 -8.699219 3.058594 -8.035156 C 2.667969 -7.375 2.472656 -6.652344 2.472656 -5.867188 C 2.472656 -5.070312 2.667969 -4.335938 3.058594 -3.667969 C 3.449219 -3 3.976562 -2.46875 4.640625 -2.082031 C 5.308594 -1.695312 6.035156 -1.5 6.820312 -1.5 C 7.5 -1.5 8.140625 -1.648438 8.734375 -1.945312 C 9.332031 -2.242188 9.824219 -2.652344 10.214844 -3.167969 L 11.667969 -2.269531 C 11.113281 -1.507812 10.410156 -0.902344 9.5625 -0.464844 C 8.714844 -0.0273438 7.800781 0.191406 6.820312 0.191406 Z M 6.820312 0.191406 "/></g></g></g></svg>